<?xml version="1.0" encoding="UTF-8"?>
<!DOCTYPE svg PUBLIC "-//W3C//DTD SVG 1.1//EN" "http://www.w3.org/Graphics/SVG/1.1/DTD/svg11.dtd">
<svg xmlns="http://www.w3.org/2000/svg" xmlns:xlink="http://www.w3.org/1999/xlink" viewBox="353 23 720 720" preserveAspectRatio="xMidYMid meet" style="shape-rendering:geometricPrecision; text-rendering:geometricPrecision; image-rendering:optimizeQuality; fill-rule:evenodd; clip-rule:evenodd">
<rect x="353" y="23" width="720" height="720" rx="144" fill="#f4f2ec"/>
<g><path style="opacity:1" fill="#030303" d="M 562.5,126.5 C 569.992,126.163 575.825,129.163 580,135.5C 610.641,184.982 611.307,234.982 582,285.5C 571.19,300.758 559.19,315.092 546,328.5C 548.169,344.843 550.669,361.177 553.5,377.5C 592.008,375.153 618.175,391.819 632,427.5C 641.433,472.969 625.099,505.302 583,524.5C 584.433,538.534 586.433,552.534 589,566.5C 591.682,584.754 588.349,601.754 579,617.5C 566.185,632.821 549.685,640.488 529.5,640.5C 511.759,640.211 496.926,633.545 485,620.5C 474.689,605.48 474.022,590.147 483,574.5C 497.447,558.748 513.114,557.414 530,570.5C 541.649,587.366 539.482,602.2 523.5,615C 519.783,616.18 516.116,617.513 512.5,619C 518.072,623.787 524.572,625.954 532,625.5C 555.228,624.272 569.228,612.272 574,589.5C 574.667,581.833 574.667,574.167 574,566.5C 571.615,554.189 569.448,541.856 567.5,529.5C 522.802,538.213 485.635,525.547 456,491.5C 431.979,457.111 427.979,420.444 444,381.5C 453.114,363.597 464.448,347.264 478,332.5C 492.032,318.799 506.366,305.466 521,292.5C 517.432,270.68 514.932,248.68 513.5,226.5C 513.243,198.184 520.743,172.184 536,148.5C 542.955,138.694 551.789,131.361 562.5,126.5 Z"/></g>
<g><path style="opacity:1" fill="#030303" d="M 825.5,150.5 C 869.223,147.268 901.056,164.934 921,203.5C 926.568,216.075 929.068,229.241 928.5,243C 927.497,276.01 917.33,305.843 898,332.5C 880.419,356.082 859.586,376.248 835.5,393C 815.201,407.072 793.701,419.239 771,429.5C 768.566,427.475 766.732,424.975 765.5,422C 790.062,406.116 812.895,387.949 834,367.5C 870.612,327.667 886.946,280.667 883,226.5C 880.363,206.058 871.53,188.891 856.5,175C 831.786,160.467 808.953,162.967 788,182.5C 784.01,187.314 781.51,192.814 780.5,199C 780.5,202.333 781.833,205 784.5,207C 788.568,206.655 792.568,205.655 796.5,204C 823.514,202.681 836.014,215.514 834,242.5C 830.194,257.97 820.36,266.803 804.5,269C 778.187,269.362 762.687,256.529 758,230.5C 756.3,194.526 772.133,169.692 805.5,156C 812.278,154.087 818.945,152.254 825.5,150.5 Z"/></g>
<g><path style="opacity:1" fill="#f6f6f6" d="M 565.5,169.5 C 574.629,169.321 580.462,173.654 583,182.5C 585.928,206.388 580.261,228.055 566,247.5C 556.677,258.822 546.677,269.489 536,279.5C 527.389,246.883 531.389,215.883 548,186.5C 552.406,179.259 558.239,173.593 565.5,169.5 Z"/></g>
<g><path style="opacity:1" fill="#010101" d="M 800.5,499.5 C 800.56,500.043 800.893,500.376 801.5,500.5C 802.5,481.512 802.833,462.512 802.5,443.5C 802.414,438.096 803.414,432.929 805.5,428C 821.77,418.952 837.27,408.786 852,397.5C 846.833,409.177 844,421.51 843.5,434.5C 842.501,477.663 842.168,520.997 842.5,564.5C 839.833,564.5 837.167,564.5 834.5,564.5C 821.488,563.218 809.488,559.052 798.5,552C 778.667,537.5 761.5,520.333 747,500.5C 732.828,480.835 720.161,460.169 709,438.5C 687.848,395.863 667.514,352.863 648,309.5C 637.772,287.37 626.272,266.036 613.5,245.5C 618.603,221.163 618.769,196.829 614,172.5C 632.218,193.929 648.218,216.929 662,241.5C 672.922,262.344 683.589,283.344 694,304.5C 713.471,346.774 733.471,388.774 754,430.5C 763.58,448 773.913,465 785,481.5C 789.687,488.012 794.854,494.012 800.5,499.5 Z"/></g>
<g><path style="opacity:1" fill="#050505" d="M 955.5,181.5 C 975.338,180.164 983.838,189.164 981,208.5C 976.282,218.278 968.449,222.445 957.5,221C 942.314,213.82 938.814,202.987 947,188.5C 949.628,185.79 952.461,183.456 955.5,181.5 Z"/></g>
<g><path style="opacity:1" fill="#050505" d="M 958.5,251.5 C 975.518,251.348 983.351,259.682 982,276.5C 976.187,290.999 966.02,295.165 951.5,289C 939.554,277.593 939.554,266.259 951.5,255C 953.925,253.787 956.259,252.621 958.5,251.5 Z"/></g>
<g><path style="opacity:1" fill="#f6f6f6" d="M 530.5,340.5 C 533.425,351.61 535.925,362.943 538,374.5C 538.818,377.227 538.652,379.894 537.5,382.5C 507.264,395.638 493.431,418.638 496,451.5C 499.803,469.974 510.303,483.14 527.5,491C 530.791,492.544 534.124,492.711 537.5,491.5C 538.428,490.232 538.595,488.899 538,487.5C 513.781,471.544 510.115,451.877 527,428.5C 532.439,422.881 538.939,419.215 546.5,417.5C 551.675,447.21 557.175,476.877 563,506.5C 563.818,509.227 563.652,511.894 562.5,514.5C 525.999,522.819 496.499,512.152 474,482.5C 459.698,454.679 460.031,427.013 475,399.5C 479.755,392.324 484.755,385.324 490,378.5C 502.906,365.006 516.406,352.339 530.5,340.5 Z"/></g>
<g><path style="opacity:1" fill="#f6f6f6" d="M 561.5,414.5 C 586.484,416.65 601.651,429.984 607,454.5C 608.959,478.582 599.793,496.915 579.5,509.5C 572.945,477.957 566.945,446.29 561.5,414.5 Z"/></g>
<g><path style="opacity:1" fill="#919192" d="M 802.5,443.5 C 802.833,462.512 802.5,481.512 801.5,500.5C 800.893,500.376 800.56,500.043 800.5,499.5C 801.167,480.833 801.833,462.167 802.5,443.5 Z"/></g>
<g><path style="opacity:1" fill="#868687" d="M 843.5,434.5 C 843.5,478.167 843.5,521.833 843.5,565.5C 840.287,565.81 837.287,565.477 834.5,564.5C 837.167,564.5 839.833,564.5 842.5,564.5C 842.168,520.997 842.501,477.663 843.5,434.5 Z"/></g>
</svg>
